<svg id="dewan-logo-lines" fill="#E2DDDE" xmlns="http://www.w3.org/2000/svg" width="46.881" height="70.173" viewBox="0 0 46.881 70.173" aria-labelledby="dewan-logo-lines-title">
    <title id="dewan-logo-lines-title">DeWan's logo</title>
    <path d="M21.422,11.35s-6.131,9.019-2.488,25.179c2.873,12.782,10.211,19.777,10.211,19.777H27.933a16.671,16.671,0,0,0,3.56,2.03,51.035,51.035,0,0,1-1.926-4.731l-.12,1.514s-6.157-5.715-9.436-18.97A44.179,44.179,0,0,1,21.422,11.35Z" transform="translate(-8.526 -5.443)" />
    <path d="M.224,52.724c-.578-5.251.146-6.412.146-6.412A38.05,38.05,0,0,0,3.216,59.443c1.926,4.684,10.175,14.052,20.006,14.1,6.61.031,17.789-8.884,20.245-24.362s-.713-26.173-4.679-34.292l-.755,1.515A45.02,45.02,0,0,0,35.958,10s3.4,1.515,4.72,3.4l-.755.38s7.37,13.532,4.439,34.469c-2.727,19.439-14.291,26.808-21.089,26.72C13.448,74.832,1.561,65.043.224,52.724Z" transform="translate(0 -4.796)" />
    <path d="M15.17,107.174S23.232,96.317,24.741,89c0,0-.864,6.448-3.013,10.747A23.53,23.53,0,0,1,15.17,107.174Z" transform="translate(-7.275 -42.68)" />
    <path d="M7.277,85.851a37.316,37.316,0,0,1-3.425-9.587c-.968-5.048-.739-7.52.3-9.025a22.639,22.639,0,0,0,.317,9.025C5.68,81.214,7.277,85.851,7.277,85.851Z" transform="translate(-1.553 -32.245)" />
    <path d="M10.932,77.5A23.941,23.941,0,0,1,7.809,69c-.656-4.622-.749-9.566.323-10.747s1.624,2.888,2.144,5.158a56.047,56.047,0,0,0,2.909,8.816s-1.5-7.963.645-10.211A37.779,37.779,0,0,0,14.8,75.774s-4.523-7.2-5.267-11.825S7.814,57.5,7.918,62.019,8.886,72.979,10.932,77.5Z" transform="translate(-3.51 -27.836)" />
    <path d="M59.069,41.442C48.811,40.178,43.43,46.334,43.43,46.334A25.351,25.351,0,0,1,51.5,43.248a20.994,20.994,0,0,1,5.116-.52,14.573,14.573,0,0,1-5.538,2.6s4.471-.187,6.152-1.468A6.048,6.048,0,0,0,59.069,41.442Z" transform="translate(-20.827 -19.792)" />
    <path d="M48.17,68.392s10.034,0,15.889-12.309c5.1-10.716,6.094-20.074,5.257-25.924,0,0,3.123,12.064-4.164,26.022C57.392,71.052,48.17,68.392,48.17,68.392Z" transform="translate(-23.1 -14.463)" />
    <path d="M31.777,47.127A15.5,15.5,0,0,0,37.2,42.963l-5.954,1.509V39.95l-3.149.671s.7-6.334.7-10.487-.354-12.642-.7-18.871S34.166.38,35.04,0c0,0,.994,6.719-.775,10.039-1.312,2.451-6.36,4.939-9.134,6.131A25.013,25.013,0,0,0,13.28,27.063s1.416-8.8,14.614-13.62c6.9-2.514,7.208-10.112,6.688-12.184,0,0-7.036,4.054-5.636,15.947a95.955,95.955,0,0,1,.317,21.859l2.977-.854-.3,5.272s4.871-1.327,8.2-2.5C40.135,40.98,37.257,46.476,31.777,47.127Z" transform="translate(-6.369)" />
</svg>