<svg xmlns="http://www.w3.org/2000/svg" width="26.451" height="18.531" viewBox="0 0 26.451 18.531">
    <g id="quotemark" transform="translate(26.451 18.531) rotate(180)">
        <path d="M39.033,6.323c0-.073.011-.145.011-.219,0-.025,0-.049,0-.073,0-.049,0-.1,0-.146l-.011.007a6.1,6.1,0,1,0-6.96,6.247c-.736,2.439-1.935,4.213-4.615,4.213v2.179C34.3,18.531,38.8,13.109,39.033,6.323Z" transform="translate(-12.594)" fill="#bac4d1"/>
        <path d="M12.2,6.323c0-.073.011-.145.011-.219,0-.025,0-.049,0-.073,0-.049,0-.1,0-.146l-.011.007a6.1,6.1,0,1,0-6.96,6.247C4.5,14.578,3.3,16.352.624,16.352v2.179C7.466,18.531,11.965,13.109,12.2,6.323Z" fill="#bac4d1"/>
    </g>
</svg>