<svg xmlns="http://www.w3.org/2000/svg" width="387.291" height="220.555" viewBox="0 0 387.291 220.555">
  <g id="temp-delete-google-map" transform="translate(111.91 139.59)" opacity="0.64" style="isolation: isolate">
    <path id="ee-background" d="M365.434,188.923h0Z" transform="translate(-90.054 -113.33)" fill="#a9ff63"/>
    <g id="Group_14" data-name="Group 14" transform="translate(-5.049 1.359)">
      <path id="Path_14" data-name="Path 14" d="M448.4,599.9" transform="translate(-448.4 -599.9)" fill="#dff3fb"/>
    </g>
    <path id="Path_15" data-name="Path 15" d="M83.335,24.476l.178,20.258s1.552,21.244-21.385,21l-65.567.624-.12,9.4,61.894-.127S93.2,81.575,94.148,45.087l.469-20.37S84.059,24.717,83.335,24.476Z" transform="translate(-92.312 -141.145)" fill="#fff" stroke="rgba(0,0,0,0)" stroke-width="7.673"/>
    <path id="Path_16" data-name="Path 16" d="M87.726,0l.645,54.08s-4.056,14.7-26.942,14.461L.12,68.746,0,80.461l60.841.613s36.992,4.007,37.942-32.4L99.251.241S88.448.241,87.726,0Z" transform="translate(-91.076 22.426) rotate(-90)" fill="#fff" stroke="rgba(0,0,0,0)" stroke-width="7.656"/>
    <g id="Group_15" data-name="Group 15" transform="translate(-46.164 -76.824)">
      <g id="g-1" transform="translate(0 0)">
        <g id="g-2">
          <path id="Path_17" data-name="Path 17" d="M326.313,27.287H436.192V38.163H326.313Z" transform="translate(-326.313 -27.287)" fill="#fff"/>
        </g>
      </g>
    </g>
    <g id="Group_16" data-name="Group 16" transform="translate(-12.653 -9.767) rotate(90)">
      <g id="g-3" transform="translate(0 0)">
        <g id="g-4">
          <path id="Path_18" data-name="Path 18" d="M0,0H89.4V11.814H0Z" fill="#fff"/>
        </g>
      </g>
    </g>
    <g id="Group_17" data-name="Group 17" transform="matrix(0.898, -0.44, 0.44, 0.898, -64.733, -66.754)">
      <g id="g-5" transform="translate(0 0)">
        <g id="g-6" transform="translate(0 0)">
          <path id="Path_19" data-name="Path 19" d="M0,0H3.446V47.44H0Z" fill="#fff"/>
        </g>
      </g>
    </g>
    <g id="Group_18" data-name="Group 18" transform="translate(-57.845 -25.99)">
      <g id="g-7" transform="translate(0 0)">
        <g id="g-8">
          <path id="Path_20" data-name="Path 20" d="M346.18,26.03a5.526,5.526,0,1,1-5.526,5.526A5.528,5.528,0,0,1,346.18,26.03Z" transform="translate(-340.654 -26.03)" fill="#008200" stroke="#fff" stroke-width="11.317"/>
        </g>
      </g>
    </g>
    <g id="Group_19" data-name="Group 19" transform="translate(-48.688 -18.996) rotate(-90)">
      <g id="g-9" transform="translate(0 0)">
        <g id="g-10">
          <path id="Path_21" data-name="Path 21" d="M0,0H3.446V25.3H0Z" fill="#fff"/>
        </g>
      </g>
    </g>
    <g id="Group_20" data-name="Group 20" transform="translate(-80.357 -18.993) rotate(-90)">
      <g id="g-11">
        <g id="g-12">
          <path id="Path_22" data-name="Path 22" d="M0,0H3.446V22.881H0Z" fill="#fff"/>
        </g>
      </g>
    </g>
    <g id="Group_21" data-name="Group 21" transform="matrix(-0.259, -0.966, 0.966, -0.259, -110.072, -10.915)">
      <g id="g-13" transform="translate(0 0)">
        <g id="g-14" transform="translate(0 0)">
          <path id="Path_23" data-name="Path 23" d="M0,0H3.446V31.728H0Z" fill="#fff"/>
        </g>
      </g>
    </g>
    <g id="Group_22" data-name="Group 22" transform="translate(-54.151 -14.638)">
      <g id="g-15" transform="translate(0)">
        <g id="g-16">
          <path id="Path_24" data-name="Path 24" d="M10.234,231.478H13.68V323.74H10.234Z" transform="translate(-10.234 -231.478)" fill="#fff"/>
        </g>
      </g>
    </g>
    <g id="Group_23" data-name="Group 23" transform="matrix(0.866, 0.5, -0.5, 0.866, -54.067, -0.32)">
      <g id="g-17" transform="translate(0 0)">
        <g id="g-18" transform="translate(0)">
          <path id="Path_25" data-name="Path 25" d="M0,0H3.446V81.329H0Z" fill="#fff"/>
        </g>
      </g>
    </g>
    <g id="Group_24" data-name="Group 24" transform="translate(-79.456 -19.817)">
      <g id="g-19" transform="translate(0)">
        <g id="g-20">
          <path id="Path_26" data-name="Path 26" d="M10.234,38.078H13.68V53.255H10.234Z" transform="translate(-10.234 -38.078)" fill="#fff"/>
        </g>
      </g>
    </g>
    <g id="Group_25" data-name="Group 25" transform="matrix(0, -1, 1, 0, -79.452, -4.636)">
      <g id="g-21" transform="translate(0)">
        <g id="g-22">
          <path id="Path_27" data-name="Path 27" d="M0,0H3.446V25.543H0Z" fill="#fff"/>
        </g>
      </g>
    </g>
    <g id="Group_26" data-name="Group 26" transform="translate(-79.248 -7.357) rotate(45)">
      <g id="g-23" transform="translate(0 0)">
        <g id="g-24">
          <path id="Path_28" data-name="Path 28" d="M0,0H3.446V46.191H0Z" fill="#fff"/>
        </g>
      </g>
    </g>
    <g id="Group_27" data-name="Group 27" transform="translate(-52.493 17.443) rotate(-90)">
      <g id="g-25" transform="translate(0 0)">
        <g id="g-26">
          <path id="Path_29" data-name="Path 29" d="M0,0H3.446V37.437H0Z" fill="#fff"/>
        </g>
      </g>
    </g>
    <g id="Group_28" data-name="Group 28" transform="matrix(0, 1, -1, 0, -51.278, -44.009)">
      <g id="g-27" transform="translate(0 0)">
        <g id="g-28">
          <path id="Path_30" data-name="Path 30" d="M0,0H3.446V58.862H0Z" fill="#fff"/>
        </g>
      </g>
    </g>
    <g id="Group_29" data-name="Group 29" transform="translate(-67.399 -41.536)">
      <g id="g-29" transform="translate(0)">
        <g id="g-30">
          <path id="Path_31" data-name="Path 31" d="M10.234,49.673H13.68v19.8H10.234Z" transform="translate(-10.234 -49.673)" fill="#fff"/>
        </g>
      </g>
    </g>
    <path id="Path_32" data-name="Path 32" d="M189.1,504.1a6.456,6.456,0,0,1-4.621-4.92H167.246V510.1h21.831Z" transform="translate(-243.245 -518.216)" fill="#cdcdcd" stroke="#fff" stroke-width="0"/>
    <path id="Path_33" data-name="Path 33" d="M317.239,499.284a1.009,1.009,0,0,1-.089.55,6.474,6.474,0,0,1-4.7,4.409V532.27h28.333V499.31Z" transform="translate(-364.691 -518.298)" fill="#cdcdcd" stroke="rgba(255,255,255,0)" stroke-width="15.746"/>
    <g id="Group_30" data-name="Group 30" transform="translate(-52.216 17.421)">
      <g id="g-31" transform="translate(0 0)">
        <g id="g-32">
          <path id="Path_34" data-name="Path 34" d="M84.089,32.851H112.4V45.945H84.089Z" transform="translate(-84.089 -32.851)" fill="#cdcdcd"/>
        </g>
      </g>
    </g>
    <path id="Path_35" data-name="Path 35" d="M222.712,630.722V654.4H209.074Z" transform="translate(-276.905 -624.066)" fill="#45a73c" stroke="#000" stroke-width="0"/>
    <path id="Path_36" data-name="Path 36" d="M31.427,572.576H54.31l.076,4.484L36.748,607.766H-.088l-.076-3.673Z" transform="translate(-108.531 -577.276)" fill="#cdcdcd" stroke="#000" stroke-width="0"/>
    <path id="Path_37" data-name="Path 37" d="M-.3,507.122l28.813-7.668h.436v11.831l-29.2,29.23Z" transform="translate(-108.42 -518.435)" fill="#cdcdcd" stroke="#000" stroke-width="0"/>
    <path id="Path_38" data-name="Path 38" d="M-.059,388.636H41.293V406.8H28.238l-28.3,7.57Z" transform="translate(-108.615 -429.26)" fill="#cdcdcd" stroke="#000" stroke-width="0"/>
    <g id="Group_31" data-name="Group 31" transform="translate(-90.266 -65.644)">
      <g id="g-33" transform="translate(0)">
        <g id="g-34">
          <path id="Path_39" data-name="Path 39" d="M107.366,51.786l26.259-.405,10.454,21.712H107.366Z" transform="translate(-107.366 -51.381)" fill="#cdcdcd"/>
        </g>
      </g>
    </g>
    <g id="Group_32" data-name="Group 32" transform="matrix(0.984, -0.179, 0.179, 0.984, -45.291, -96.995)">
      <g id="g-35">
        <g id="g-36">
          <path id="Path_40" data-name="Path 40" d="M0,0,3.222.323l.285,21.269H.061Z" fill="#fff"/>
        </g>
      </g>
    </g>
    <path id="Path_41" data-name="Path 41" d="M216.52,40.814l-3.257.065-.367-3.721s-.717-7.718-10-8.095l-.027-3.442s11.28-.374,13.223,11.311Z" transform="translate(-258.427 -137.143)" fill="#fff" stroke="#000" stroke-width="0"/>
    <path id="Path_42" data-name="Path 42" d="M325.833,111.98" transform="translate(-354.258 -205.914)" fill="#fff" stroke="#000" stroke-width="0"/>
    <g id="Group_33" data-name="Group 33" transform="matrix(-0.5, -0.866, 0.866, -0.5, -96.514, -89.101)">
      <g id="g-37" transform="translate(0 0)">
        <g id="g-38">
          <path id="Path_43" data-name="Path 43" d="M0,0H3.446V40.154H0Z" fill="#fff"/>
        </g>
      </g>
    </g>
    <g id="Group_34" data-name="Group 34" transform="translate(-65.674 -117.52)">
      <g id="g-39" transform="translate(0 0)">
        <g id="g-40">
          <path id="Path_44" data-name="Path 44" d="M10.234,18.084H13.68v7.208H10.234Z" transform="translate(-10.234 -18.084)" fill="#fff"/>
        </g>
      </g>
    </g>
    <g id="Group_35" data-name="Group 35" transform="translate(-43.534 -97.981) rotate(-90)">
      <g id="g-43" transform="translate(0 0)">
        <g id="g-44">
          <path id="Path_45" data-name="Path 45" d="M0,0H3.446V11.368H0Z" fill="#fff"/>
        </g>
      </g>
    </g>
    <g id="Group_36" data-name="Group 36" transform="matrix(0.992, 0.13, -0.13, 0.992, -35.072, -116.985)">
      <g id="g-45" transform="translate(0 0)">
        <g id="g-46">
          <path id="Path_46" data-name="Path 46" d="M0,0H3.446V17.569H0Z" fill="#fff"/>
        </g>
      </g>
    </g>
    <g id="Group_37" data-name="Group 37" transform="translate(-34.949 -97.983) rotate(-90)">
      <g id="g-47" transform="translate(0 0)">
        <g id="g-48">
          <path id="Path_47" data-name="Path 47" d="M0,0H3.446V15.979H0Z" fill="#fff"/>
        </g>
      </g>
    </g>
    <g id="Group_38" data-name="Group 38" transform="matrix(0.925, 0.381, -0.381, 0.925, -22.846, -107.049)">
      <g id="g-49" transform="translate(0 0)">
        <g id="g-50">
          <path id="Path_48" data-name="Path 48" d="M.021.218,3.421,0l.025,7.824H0Z" fill="#fff"/>
        </g>
      </g>
    </g>
    <path id="Path_49" data-name="Path 49" d="M274.948,115.949l17.3-.047s13.035-3.091,12.153-21.214l-33.446.015Z" transform="translate(-314.991 -192.721)" fill="#cdcdcd" stroke="#000" stroke-width="0"/>
    <g id="Group_39" data-name="Group 39" transform="translate(-95.709 -93.344) rotate(-90)">
      <g id="g-55">
        <g id="g-56">
          <path id="Path_50" data-name="Path 50" d="M0,0,23.181.539V30.062l-5.6.067Z" fill="#cdcdcd"/>
        </g>
      </g>
    </g>
    <g id="Group_40" data-name="Group 40" transform="matrix(0.966, -0.259, 0.259, 0.966, -65.814, -108.614)">
      <g id="g-57" transform="translate(0 0)">
        <g id="g-58">
          <path id="Path_51" data-name="Path 51" d="M0,0H3.446V13.259H0Z" fill="#fff"/>
        </g>
      </g>
    </g>
    <g id="Group_41" data-name="Group 41" transform="matrix(0, -1, 1, 0, -61.389, -98.138)">
      <g id="g-59">
        <g id="g-60">
          <path id="Path_52" data-name="Path 52" d="M0,0H3.446V17.587H0Z" fill="#fff"/>
        </g>
      </g>
    </g>
    <path id="Path_53" data-name="Path 53" d="M168.919,42.846l1.707,6.529,14.615.086-.9-1.959s-3.155-4.915-8.4-4.647Z" transform="translate(-231.104 -151.003)" fill="#45a73c" stroke="#000" stroke-width="0"/>
    <g id="Group_42" data-name="Group 42" transform="matrix(0.966, -0.259, 0.259, 0.966, -62.425, -95.961)">
      <g id="g-61" transform="translate(0 0)">
        <g id="g-62" transform="translate(0 0)">
          <path id="Path_54" data-name="Path 54" d="M0,0H3.446V22.139H0Z" fill="#fff"/>
        </g>
      </g>
    </g>
    <g id="Group_43" data-name="Group 43" transform="translate(-95.149 -76.331) rotate(-90)">
      <g id="g-63">
        <g id="g-64">
          <path id="Path_55" data-name="Path 55" d="M.221,0,14.509,1.617,30.9,29.754,0,38.085Z" fill="#cdcdcd"/>
        </g>
      </g>
    </g>
    <g id="Group_44" data-name="Group 44" transform="translate(-59.558 -76.348) rotate(-90)">
      <g id="g-65">
        <g id="g-66">
          <path id="Path_56" data-name="Path 56" d="M0,5.959,21.841,0l-.093,14.16L0,18.075Z" fill="#cdcdcd"/>
        </g>
      </g>
    </g>
    <path id="Path_57" data-name="Path 57" d="M831.835-35.241S826,11.587,775.456,50.745s-51.1,60.821-51.1,60.821-5,16.941-34.16,34.16-20.514,30.122-20.514,30.122H646.029l.225-18.88s19.833-22.213,27.411-26.15S692.832,118.3,692.832,118.3,701.858,107.808,706,98s25.445-37.183,25.445-37.183S748.6,41.506,769.358,30.886s45.617-51.651,45.617-51.651Z" transform="translate(-663.903 -97.631)" fill="#388aab" stroke="#fff" stroke-width="5.496"/>
    <g id="Group_45" data-name="Group 45" transform="matrix(-0.079, -0.997, 0.997, -0.079, 63.687, 78.821)">
      <g id="g-67" transform="translate(0 0)">
        <g id="g-68" transform="translate(0 0)">
          <path id="Path_58" data-name="Path 58" d="M0,0H196.36V11.082H0Z" transform="translate(0 0)" fill="#fff"/>
        </g>
      </g>
    </g>
    <g id="Group_46" data-name="Group 46" transform="matrix(-0.866, -0.5, 0.5, -0.866, 162.381, 27.637)">
      <g id="g-69" transform="translate(0 0)">
        <g id="g-70">
          <path id="Path_59" data-name="Path 59" d="M0,0H126.771V14.673H0Z" fill="#fff"/>
        </g>
      </g>
    </g>
    <g id="Group_48" data-name="Group 48" transform="translate(12.844 -116.669)">
      <g id="g-73" transform="translate(0 0)">
        <g id="g-74">
          <path id="Path_61" data-name="Path 61" d="M10.234,110.51H13.68v44.047H10.234Z" transform="translate(-10.234 -110.51)" fill="#fff"/>
        </g>
      </g>
    </g>
    <path id="Path_62" data-name="Path 62" d="M541.292,109.463h-3.436s-.562-10.2,9.032-10.158l-.094,3.466S541.292,102.409,541.292,109.463Z" transform="translate(-525.056 -196.437)" fill="#fff" stroke="#000" stroke-width="0"/>
    <g id="Group_49" data-name="Group 49" transform="matrix(0, -1, 1, 0, 21.245, -93.689)">
      <g id="g-75" transform="translate(0 0)">
        <g id="g-76">
          <path id="Path_63" data-name="Path 63" d="M0,0H3.446V35.75H0Z" fill="#fff"/>
        </g>
      </g>
    </g>
    <path id="Path_64" data-name="Path 64" d="M760.043,163.2" transform="translate(-705.656 -247.131)" fill="#fff" stroke="#000" stroke-width="0"/>
    <g id="Group_50" data-name="Group 50" transform="translate(24.14 -105.705) rotate(90)">
      <g id="g-79" transform="translate(0 0)">
        <g id="g-80">
          <path id="Path_65" data-name="Path 65" d="M0,0H3.446V10.573H0Z" fill="#fff"/>
        </g>
      </g>
    </g>
    <path id="Path_66" data-name="Path 66" d="M3.442,10.158H.006S-.555-.047,9.038,0L8.944,3.466S3.442,3.1,3.442,10.158Z" transform="translate(33.371 -105.712) rotate(90)" fill="#fff" stroke="#000" stroke-width="0"/>
    <g id="Group_51" data-name="Group 51" transform="matrix(-0.966, -0.259, 0.259, -0.966, 36.275, -74.676)">
      <g id="g-81" transform="translate(0 0)">
        <g id="g-82" transform="translate(0 0)">
          <path id="Path_67" data-name="Path 67" d="M0,0H3.446V29.562H0Z" fill="#fff"/>
        </g>
      </g>
    </g>
    <path id="Path_68" data-name="Path 68" d="M555.481,72.994v6.894s1.5-1.724,5.245-1.774h8.692s-.025-4.821-5.995-5.12Z" transform="translate(-539.365 -175.265)" fill="#45a73c" stroke="#008200" stroke-width="0"/>
    <path id="Path_69" data-name="Path 69" d="M457.8,98.45l-19.46.094s4.851-6.3,5.36-18.04l.119-7.484h13.951Z" transform="translate(-444.581 -175.285)" fill="#cdcdcd" stroke="#008200" stroke-width="0"/>
    <path id="Path_70" data-name="Path 70" d="M573.133,133.679H555.352v-10.6s-.254-6.5,6.169-6.3h16.331Z" transform="translate(-539.33 -210.495)" fill="#cdcdcd" stroke="#008200" stroke-width="0"/>
    <path id="Path_71" data-name="Path 71" d="M573,19.077s.24-7.874-9.268-8.524l-8.106-.026V-.349l28.066.362-5.065,19.1Z" transform="translate(-539.604 -116.245)" fill="#cdcdcd" stroke="#008200" stroke-width="0"/>
    <g id="Group_52" data-name="Group 52" transform="translate(-1.004 -116.521)">
      <g id="g-77" transform="translate(0 0)">
        <g id="g-78">
          <path id="Path_72" data-name="Path 72" d="M40.495,30.195H54.411V42.23L40.293,46.546Z" transform="translate(-40.293 -30.195)" fill="#cdcdcd"/>
        </g>
      </g>
    </g>
    <g id="Group_53" data-name="Group 53" transform="translate(42.043 -116.151)">
      <g id="g-83" transform="translate(0 0)">
        <g id="g-84">
          <path id="Path_73" data-name="Path 73" d="M47.123,50.817l1.776.514,1.222,18.654L41.7,69.85Z" transform="translate(-41.696 -50.817)" fill="#cdcdcd"/>
        </g>
      </g>
    </g>
    <g id="Group_54" data-name="Group 54" transform="translate(36.613 -93.793)">
      <g id="g-85" transform="translate(0 0)">
        <g id="g-86">
          <path id="Path_74" data-name="Path 74" d="M19.25,41.854l9.257-.107,1.417,17.07L14.607,58.71Z" transform="translate(-14.607 -41.747)" fill="#cdcdcd"/>
        </g>
      </g>
    </g>
    <g id="Group_55" data-name="Group 55" transform="translate(30.812 -66.827)">
      <g id="g-87" transform="translate(0 0)">
        <g id="g-88">
          <path id="Path_75" data-name="Path 75" d="M10.234,44.769H13.68V62.613H10.234Z" transform="translate(-10.234 -44.769)" fill="#fff"/>
        </g>
      </g>
    </g>
    <g id="Group_56" data-name="Group 56" transform="translate(27.082 -49.497)">
      <g id="g-89" transform="translate(0 0)">
        <g id="g-90">
          <path id="Path_76" data-name="Path 76" d="M346.18,26.03a5.526,5.526,0,1,1-5.526,5.526A5.528,5.528,0,0,1,346.18,26.03Z" transform="translate(-340.654 -26.03)" fill="#45a73c" stroke="#fff" stroke-width="11.317"/>
        </g>
      </g>
    </g>
    <g id="Group_57" data-name="Group 57" transform="matrix(0, 1, -1, 0, 57.45, -45.65)">
      <g id="g-91" transform="translate(0 0)">
        <g id="g-92">
          <path id="Path_77" data-name="Path 77" d="M0,0H3.446V19.736H0Z" fill="#fff"/>
        </g>
      </g>
    </g>
    <g id="Group_58" data-name="Group 58" transform="translate(28.536 -41.118) rotate(45)">
      <g id="g-93" transform="translate(0 0)">
        <g id="g-94">
          <path id="Path_78" data-name="Path 78" d="M0,0H3.446V63.55H0Z" fill="#fff"/>
        </g>
      </g>
    </g>
    <g id="Group_59" data-name="Group 59" transform="matrix(0.995, -0.1, 0.1, 0.995, 3.834, -66.904)">
      <g id="g-95" transform="translate(0 0)">
        <g id="g-96">
          <path id="Path_79" data-name="Path 79" d="M0,0H3.446V47.944H0Z" fill="#fff"/>
        </g>
      </g>
    </g>
    <g id="Group_60" data-name="Group 60" transform="matrix(0.866, -0.5, 0.5, 0.866, 19.567, -30.784)">
      <g id="g-97" transform="translate(0 0)">
        <g id="g-98">
          <path id="Path_80" data-name="Path 80" d="M0,0H3.446V40.3H0Z" fill="#fff"/>
        </g>
      </g>
    </g>
    <g id="Group_61" data-name="Group 61" transform="matrix(0.966, -0.259, 0.259, 0.966, 3.082, -14.043)">
      <g id="g-99" transform="translate(0 0)">
        <g id="g-100" transform="translate(0)">
          <path id="Path_81" data-name="Path 81" d="M0,0H3.446V45.884H0Z" fill="#fff"/>
        </g>
      </g>
    </g>
    <g id="Group_62" data-name="Group 62" transform="matrix(0, -1, 1, 0, -13.536, 8.598)">
      <g id="g-101" transform="translate(0 0)">
        <g id="g-102">
          <path id="Path_82" data-name="Path 82" d="M0,0H3.446V23.687H0Z" fill="#fff"/>
        </g>
      </g>
    </g>
    <g id="Group_63" data-name="Group 63" transform="matrix(0, -1, 1, 0, 9.069, -19.053)">
      <g id="g-103" transform="translate(0 0)">
        <g id="g-104">
          <path id="Path_83" data-name="Path 83" d="M0,0H3.446V19.145H0Z" fill="#fff"/>
        </g>
      </g>
    </g>
    <path id="Path_84" data-name="Path 84" d="M545.694,454.543h10.314l-3.772-6.505S545.694,454.617,545.694,454.543Z" transform="translate(-531.414 -477.06)" fill="#cdcdcd" stroke="#cdcdcd" stroke-width="0"/>
    <path id="Path_85" data-name="Path 85" d="M404.035,553.532l16.9-16.862,4.486,16.824Z" transform="translate(-416.825 -548.383)" fill="#45a73c" stroke="#008200" stroke-width="0"/>
    <g id="Group_64" data-name="Group 64" transform="matrix(-0.259, -0.966, 0.966, -0.259, 7.926, -51.904)">
      <g id="g-105" transform="translate(0 0)">
        <g id="g-106">
          <path id="Path_86" data-name="Path 86" d="M0,0H3.446V25.854H0Z" fill="#fff"/>
        </g>
      </g>
    </g>
    <g id="Group_65" data-name="Group 65" transform="matrix(0, -1, 1, 0, 29.412, -15.911)">
      <g id="g-107" transform="translate(0 0)">
        <g id="g-108">
          <path id="Path_87" data-name="Path 87" d="M0,0H3.446l.067,26.036L.064,23.13Z" fill="#fff"/>
        </g>
      </g>
    </g>
    <path id="Path_88" data-name="Path 88" d="M509.155,498.359h15.657l14.179,24.488-7.023,10.212-4.07,4.993L516.1,546.14l-11.555-43.083Z" transform="translate(-498.301 -517.554)" fill="#cdcdcd" stroke="#008200" stroke-width="0"/>
    <path id="Path_89" data-name="Path 89" d="M649.326,273.942a6.721,6.721,0,0,1,4.746,4.746l15.676.122-1.736-20.439-18.8-.138Z" transform="translate(-615.301 -324.325)" fill="#cdcdcd" stroke="#008200" stroke-width="0"/>
    <g id="Group_66" data-name="Group 66" transform="translate(-21.511 -66.117)">
      <g id="g-109" transform="translate(0 0)">
        <g id="g-110">
          <path id="Path_90" data-name="Path 90" d="M51.388,17.351H75.693V21.8L52.729,27.678Z" transform="translate(-22.427 -17.177)" fill="#cdcdcd"/>
          <path id="Path_91" data-name="Path 91" d="M83.748,51.583s-7.3,2.294-3.836,9.965L63.878,77.582,61.123,49.8l22.663-6.034Z" transform="translate(-30.48 -35.827)" fill="#cdcdcd" stroke="#008200" stroke-width="0"/>
          <path id="Path_92" data-name="Path 92" d="M-95.78,3.214l25.748-.106,4.546,44.947L-87.369,69.838l.088-44.5S-88.1,10.245-95.78,3.214Z" transform="translate(95.78 -3.109)" fill="#cdcdcd" stroke="#008200" stroke-width="0"/>
        </g>
      </g>
    </g>
    <g id="Group_67" data-name="Group 67" transform="translate(106.869 -66.563) rotate(180)">
      <g id="g-111" transform="translate(0)">
        <g id="g-112">
          <path id="Path_93" data-name="Path 93" d="M0,1.059,3.446,0V51.241H0Z" fill="#fff"/>
        </g>
      </g>
    </g>
    <path id="Path_94" data-name="Path 94" d="M3.442,10.158H.006S-.555-.047,9.038,0L8.944,3.466S3.442,3.1,3.442,10.158Z" transform="translate(106.937 -93.294) rotate(180)" fill="#fff" stroke="#000" stroke-width="0"/>
    <g id="Group_68" data-name="Group 68" transform="matrix(0, 1, -1, 0, 98.639, -96.737)">
      <g id="g-113" transform="translate(0 0)">
        <g id="g-114">
          <path id="Path_95" data-name="Path 95" d="M0,0H3.446V40.014H0Z" fill="#fff"/>
        </g>
      </g>
    </g>
    <g id="Group_69" data-name="Group 69" transform="matrix(-1, 0, 0, -1, 81.713, -94.252)">
      <g id="g-115" transform="translate(0)">
        <g id="g-116">
          <path id="Path_96" data-name="Path 96" d="M0,0H3.446V24.411H0Z" fill="#fff"/>
        </g>
      </g>
    </g>
    <path id="Path_97" data-name="Path 97" d="M819.639,140.8v3.477s29.007,2.067,30.007-30.2l-3.37-.1S847.36,140.35,819.639,140.8Z" transform="translate(-753.376 -208.241)" fill="#fff" stroke="#008200" stroke-width="0"/>
    <path id="Path_98" data-name="Path 98" d="M3.895,10.067,0,9.792S-.286-.137,13.434,0L14.9,3.467S3.436,3.472,3.895,10.067Z" transform="translate(93.267 -72.581) rotate(90)" fill="#fff" stroke="#000" stroke-width="0"/>
    <path id="Path_99" data-name="Path 99" d="M945.241,110.011a7.063,7.063,0,0,1-4.356,1.694h-3.469a42.726,42.726,0,0,1-1.47,9.594,34.04,34.04,0,0,1-3.8,8.293s-2.823,3.538-3.341,3.9l.474.293s2.055.582,4.231,4.9a27.537,27.537,0,0,1,1.124,5.938l10.7-6.319Z" transform="translate(-841.578 -205.051)" fill="#cdcdcd" stroke="#000" stroke-width="0"/>
    <path id="Path_100" data-name="Path 100" d="M1290.81,155.581" transform="translate(-1135.196 -240.999)" fill="#b1b1b1" stroke="#000" stroke-width="0"/>
    <g id="Group_70" data-name="Group 70" transform="matrix(-1, 0, 0, -1, 81.742, -87.405)">
      <g id="g-117" transform="translate(0)">
        <g id="g-118">
          <path id="Path_101" data-name="Path 101" d="M0,0H3.446V8.3H0Z" fill="#fff"/>
        </g>
      </g>
    </g>
    <g id="Group_71" data-name="Group 71" transform="translate(59.203 -116.548)">
      <g id="g-121" transform="translate(0 0)">
        <g id="g-122">
          <path id="Path_102" data-name="Path 102" d="M42.915,49.74l19.337-.09V69.44l-17.812.09Z" transform="translate(-42.915 -49.651)" fill="#cdcdcd"/>
        </g>
      </g>
    </g>
    <g id="Group_72" data-name="Group 72" transform="translate(60.858 -93.353)">
      <g id="g-123" transform="translate(0 0)">
        <g id="g-124">
          <path id="Path_103" data-name="Path 103" d="M57.086,11.349l17.695.047v4.619L57.6,16.061Z" transform="translate(-57.086 -11.349)" fill="#45a73c"/>
        </g>
      </g>
    </g>
    <path id="Path_104" data-name="Path 104" d="M898.7-.134V19.687h16.83s5.265.443,5.519-6.543V-.1Z" transform="translate(-817.291 -116.418)" fill="#cdcdcd" stroke="#000" stroke-width="0"/>
    <g id="Group_73" data-name="Group 73" transform="matrix(0, 1, -1, 0, 128.99, -108.439)">
      <g id="g-125" transform="translate(0 0)">
        <g id="g-126">
          <path id="Path_105" data-name="Path 105" d="M0,0H3.446V24.412H0Z" fill="#fff"/>
        </g>
      </g>
    </g>
    <g id="Group_74" data-name="Group 74" transform="matrix(-0.5, 0.866, -0.866, -0.5, 169.717, -84.42)">
      <g id="g-127" transform="translate(0 0)">
        <g id="g-128">
          <path id="Path_106" data-name="Path 106" d="M0,0H3.446V48.075H0Z" fill="#fff"/>
        </g>
      </g>
    </g>
    <g id="Group_75" data-name="Group 75" transform="matrix(-1, 0, 0, -1, 128.933, -106.853)">
      <g id="g-129" transform="translate(0)">
        <g id="g-130">
          <path id="Path_107" data-name="Path 107" d="M0,0H3.446V11.781H0Z" fill="#fff"/>
        </g>
      </g>
    </g>
    <g id="Group_76" data-name="Group 76" transform="matrix(-0.707, 0.707, -0.707, -0.707, 127.282, -86.18)">
      <g id="g-131" transform="translate(0 0)">
        <g id="g-132" transform="translate(0 0)">
          <path id="Path_108" data-name="Path 108" d="M.005.646,3.5,0,3.446,28.4H0Z" fill="#fff"/>
        </g>
      </g>
    </g>
    <g id="Group_77" data-name="Group 77" transform="matrix(-0.914, -0.406, 0.406, -0.914, 140.597, -43.892)">
      <g id="g-135" transform="translate(0 0)">
        <g id="g-136">
          <path id="Path_109" data-name="Path 109" d="M0,0H3.446V48.224H0Z" fill="#fff"/>
        </g>
      </g>
    </g>
    <g id="Group_78" data-name="Group 78" transform="matrix(-0.5, 0.866, -0.866, -0.5, 169.595, -22.33)">
      <g id="g-137" transform="translate(0 0)">
        <g id="g-138">
          <path id="Path_110" data-name="Path 110" d="M0,0H3.446V37.187H0Z" fill="#fff"/>
        </g>
      </g>
    </g>
    <g id="Group_79" data-name="Group 79" transform="matrix(-0.866, -0.5, 0.5, -0.866, 121.063, -9.343)">
      <g id="g-139" transform="translate(0 0)">
        <g id="g-140">
          <path id="Path_111" data-name="Path 111" d="M0,0H3.446V40.587H0Z" fill="#fff"/>
        </g>
      </g>
    </g>
    <g id="Group_80" data-name="Group 80" transform="matrix(-0.5, 0.866, -0.866, -0.5, 129.771, -29.537)">
      <g id="g-141" transform="translate(0 0)">
        <g id="g-142">
          <path id="Path_112" data-name="Path 112" d="M.065,0H3.511V28.85L0,27.77Z" fill="#fff"/>
        </g>
      </g>
    </g>
    <g id="Group_81" data-name="Group 81" transform="matrix(-0.866, -0.5, 0.5, -0.866, 133.071, -3.683)">
      <g id="g-143" transform="translate(0 0)">
        <g id="g-144">
          <path id="Path_113" data-name="Path 113" d="M0,0H3.446V32.148H0Z" fill="#fff"/>
        </g>
      </g>
    </g>
    <g id="Group_82" data-name="Group 82" transform="matrix(0, 1, -1, 0, 167.664, -62.805)">
      <g id="g-145" transform="translate(0 0)">
        <g id="g-146" transform="translate(0)">
          <path id="Path_114" data-name="Path 114" d="M0,0H3.446V21.9H0Z" fill="#fff"/>
        </g>
      </g>
    </g>
    <g id="Group_83" data-name="Group 83" transform="translate(106.554 -108.424) rotate(-90)">
      <g id="g-147" transform="translate(0 0)">
        <g id="g-148">
          <path id="Path_115" data-name="Path 115" d="M0,0H8.264V19.176H0Z" fill="#cdcdcd"/>
        </g>
      </g>
    </g>
    <path id="Path_116" data-name="Path 116" d="M556.722,720.191" transform="translate(-541.112 -695.339)" fill="#b1b1b1" stroke="#008200" stroke-width="0"/>
    <g id="Group_84" data-name="Group 84" transform="matrix(0, -1, 1, 0, -90.193, 33.796)">
      <g id="g-149" transform="translate(0 0)">
        <g id="g-150">
          <path id="Path_117" data-name="Path 117" d="M0,0H3.446V67.893H0Z" fill="#fff"/>
        </g>
      </g>
    </g>
    <path id="Path_118" data-name="Path 118" d="M662.435,525.191" transform="translate(-626.664 -538.423)" fill="#b1b1b1" stroke="#008200" stroke-width="0"/>
    <path id="Path_119" data-name="Path 119" d="M662.979,510.912s-7.8,10.639-10.454,17.237l-9.872-17.14Z" transform="translate(-610.837 -526.933)" fill="#45a73c" stroke="#008200" stroke-width="0"/>
    <path id="Path_120" data-name="Path 120" d="M407.388,636.488l.011,46.823s17.523-18.491,21.868-21.078,6.568-3.691,6.568-3.691l-5.736-21.95Z" transform="translate(-420.438 -627.983)" fill="#cdcdcd" stroke="#008200" stroke-width="0"/>
    <path id="Path_121" data-name="Path 121" d="M1150.49-1.086l.031,7.623,9.529,5.682,9.193-13.386Z" transform="translate(-1021.918 -114.865)" fill="#cdcdcd" stroke="#008200" stroke-width="0"/>
    <path id="Path_122" data-name="Path 122" d="M1283.53,3.987l13.2,7.567-.545-34.758S1291.07-7.212,1283.53,3.987Z" transform="translate(-1129.519 -97.132)" fill="#cdcdcd" stroke="#008200" stroke-width="0"/>
    <path id="Path_123" data-name="Path 123" d="M1266.794,150.66l7.947,4.49.1,19.149-18.607-.048Z" transform="translate(-1107.512 -237.039)" fill="#cdcdcd" stroke="#008200" stroke-width="0"/>
    <path id="Path_124" data-name="Path 124" d="M1138.507,406.322l-8.7-5.054-15.56,26.9,8.74,4.956Z" transform="translate(-992.666 -438.703)" fill="#cdcdcd" stroke="#008200" stroke-width="0"/>
    <path id="Path_125" data-name="Path 125" d="M950.274,396.052s10.278-9.5,13.35-11.684l24.243,13.984-8.441,14.426Z" transform="translate(-860.103 -425.103)" fill="#cdcdcd" stroke="#008200" stroke-width="0"/>
    <path id="Path_126" data-name="Path 126" d="M1189.48,435.518l19.1,10.88.182,36.8-34.844-20.68Z" transform="translate(-1041.152 -466.264)" fill="#cdcdcd" stroke="#008200" stroke-width="0"/>
    <path id="Path_127" data-name="Path 127" transform="translate(-88.643 -113.546)" fill="#fff" stroke="#008200" stroke-width="0"/>
    <g id="Group_85" data-name="Group 85" transform="matrix(-0.5, -0.866, 0.866, -0.5, 66.132, 15.651)">
      <g id="g-151" transform="translate(0 0)">
        <g id="g-152" transform="translate(0 0)">
          <path id="Path_128" data-name="Path 128" d="M0,0H3.446V28.082H0Z" fill="#fff"/>
        </g>
      </g>
    </g>
    <g id="Group_86" data-name="Group 86" transform="matrix(-1, 0, 0, -1, 90.163, 1.627)">
      <g id="g-153" transform="translate(0)">
        <g id="g-154">
          <path id="Path_129" data-name="Path 129" d="M0,0H3.446V28.082H0Z" fill="#fff"/>
        </g>
      </g>
    </g>
    <g id="Group_87" data-name="Group 87" transform="matrix(0.707, -0.707, 0.707, 0.707, 86.429, 0.887)">
      <g id="g-155" transform="translate(0 0)">
        <g id="g-156">
          <path id="Path_130" data-name="Path 130" d="M0,0H3.446V43.555H0Z" fill="#fff"/>
        </g>
      </g>
    </g>
    <g id="Group_88" data-name="Group 88" transform="matrix(0, -1, 1, 0, 65.378, 31.998)">
      <g id="g-157">
        <g id="g-158">
          <path id="Path_131" data-name="Path 131" d="M0,0H3.446V103.4H0Z" fill="#fff"/>
        </g>
      </g>
    </g>
    <g id="Group_89" data-name="Group 89" transform="matrix(-1, 0, 0, -1, 120.871, 76.495)">
      <g id="g-159" transform="translate(0)">
        <g id="g-160">
          <path id="Path_132" data-name="Path 132" d="M0,0H3.446V77.894H0Z" fill="#fff"/>
        </g>
      </g>
    </g>
    <g id="Group_90" data-name="Group 90" transform="matrix(0, -1, 1, 0, 24.138, 49.216)">
      <g id="g-161" transform="translate(0)">
        <g id="g-162" transform="translate(0)">
          <path id="Path_133" data-name="Path 133" d="M0,0,3.023,4.823l.423,140.7H0Z" fill="#fff"/>
        </g>
      </g>
    </g>
    <g id="Group_91" data-name="Group 91" transform="matrix(-1, 0, 0, -1, 90.127, 48.119)">
      <g id="g-163" transform="translate(0)">
        <g id="g-164">
          <path id="Path_134" data-name="Path 134" d="M0,0H3.446V17.587H0Z" fill="#fff"/>
        </g>
      </g>
    </g>
    <g id="Group_92" data-name="Group 92" transform="matrix(-1, 0, 0, -1, 144.018, 76.883)">
      <g id="g-165" transform="translate(0)">
        <g id="g-166">
          <path id="Path_135" data-name="Path 135" d="M0,0H3.446V28.471H0Z" fill="#fff"/>
        </g>
      </g>
    </g>
    <g id="Group_93" data-name="Group 93" transform="matrix(-1, 0, 0, -1, 38.165, 75.787)">
      <g id="g-167" transform="translate(0 0)">
        <g id="g-168">
          <path id="Path_136" data-name="Path 136" d="M0,0H3.446V27.922H0Z" fill="#fff"/>
        </g>
      </g>
    </g>
    <path id="Path_137" data-name="Path 137" d="M833.457,516.508l18.02-10.777.131-18.518-4.206-2.305a129.707,129.707,0,0,0-14.915,18.354Z" transform="translate(-764.497 -506.008)" fill="#45a73c" stroke="#000" stroke-width="0"/>
    <path id="Path_138" data-name="Path 138" d="M947.29,506.574,975.4,522.827v28.21L947.29,522.8Z" transform="translate(-857.552 -523.442)" fill="#cdcdcd" stroke="#000" stroke-width="0"/>
    <path id="Path_139" data-name="Path 139" d="M838.916,617.364l1.157,14.7h44.4l-26.036-26.027Z" transform="translate(-770.037 -603.479)" fill="#cdcdcd" stroke="#000" stroke-width="0"/>
    <path id="Path_140" data-name="Path 140" d="M1108.17,599.3l.054,27.379,47.182-.023Z" transform="translate(-988.124 -598.056)" fill="#cdcdcd" stroke="#000" stroke-width="0"/>
    <g id="Group_94" data-name="Group 94" transform="translate(70.697 46.166) rotate(-90)">
      <g id="g-169" transform="translate(0 0)">
        <g id="g-170">
          <path id="Path_141" data-name="Path 141" d="M0,1.011,14.24,0l-.067,16.207H.135Z" fill="#cdcdcd"/>
        </g>
      </g>
    </g>
    <g id="Group_95" data-name="Group 95" transform="translate(89.724 46.054) rotate(-90)">
      <g id="g-171" transform="translate(0 0)">
        <g id="g-172">
          <path id="Path_142" data-name="Path 142" d="M0,0H14.07V28.045H0Z" fill="#cdcdcd"/>
        </g>
      </g>
    </g>
    <g id="Group_96" data-name="Group 96" transform="translate(120.077 45.772) rotate(-90)">
      <g id="g-173" transform="translate(0 0)">
        <g id="g-174">
          <path id="Path_143" data-name="Path 143" d="M0,0H13.8V47.329H0Z" fill="#cdcdcd"/>
        </g>
      </g>
    </g>
    <g id="Group_97" data-name="Group 97" transform="translate(120.556 75.582) rotate(-90)">
      <g id="g-175" transform="translate(0 0)">
        <g id="g-176">
          <path id="Path_144" data-name="Path 144" d="M0,0H26.387V20.283H0Z" fill="#cdcdcd"/>
        </g>
      </g>
    </g>
    <g id="Group_98" data-name="Group 98" transform="translate(143.583 75.577) rotate(-90)">
      <g id="g-177" transform="translate(0 0)">
        <g id="g-178">
          <path id="Path_145" data-name="Path 145" d="M0,0H26.387V23.608H0Z" fill="#cdcdcd"/>
        </g>
      </g>
    </g>
    <g id="Group_99" data-name="Group 99" transform="translate(71.568 75.892) rotate(-90)">
      <g id="g-179" transform="translate(0 0)">
        <g id="g-180">
          <path id="Path_146" data-name="Path 146" d="M0,2.156,26.689,0V46.44H.269Z" fill="#cdcdcd"/>
        </g>
      </g>
    </g>
    <g id="Group_100" data-name="Group 100" transform="translate(37.862 75.76) rotate(-90)">
      <g id="g-181" transform="translate(0 0)">
        <g id="g-182">
          <path id="Path_147" data-name="Path 147" d="M0,0H26.58V23.68L0,25.861Z" fill="#cdcdcd"/>
        </g>
      </g>
    </g>
    <path id="Path_148" data-name="Path 148" d="M523.5,844.484s-17.117,9.328-22.01,26.541h30.4V844.548Z" transform="translate(-496.639 -795.357)" fill="#cdcdcd" stroke="#000" stroke-width="0"/>
    <g id="Group_102" data-name="Group 102" transform="translate(-52.242 33.805)">
      <g id="g-185" transform="translate(0 0)">
        <g id="g-186">
          <path id="Path_152" data-name="Path 152" d="M84.221,105.864h28.36v42.195H84.221Z" transform="translate(-84.221 -105.864)" fill="#cdcdcd"/>
        </g>
      </g>
    </g>
    <path id="Path_153" data-name="Path 153" d="M-.845,765.815h16.4L-.937,794.3S-.661,766-.845,765.815Z" transform="translate(-89.3 -732.052)" fill="#45a73c" stroke="#000" stroke-width="0"/>
    <path id="Path_154" data-name="Path 154" d="M19.608,765.815h15.6v41.994l-36.079.3v-7.125Z" transform="translate(-89.353 -732.052)" fill="#cdcdcd" stroke="#000" stroke-width="0"/>
    <path id="Path_189" data-name="Path 189" d="M1827.82,81" transform="translate(-1570.443 -180.985)" fill="#b1b1b1" stroke="#000" stroke-width="0"/>
    <g id="Group_131" data-name="Group 131" transform="matrix(0.328, 0.945, -0.945, 0.328, -20.669, -48.558)">
      <g id="g-243" transform="translate(0 0)">
        <g id="g-244" transform="translate(0)">
          <path id="Path_201" data-name="Path 201" d="M0,0H3.446V31.005H0Z" fill="#fff"/>
        </g>
      </g>
    </g>
    <path id="Path_202" data-name="Path 202" d="M133.694,385.469H145.74l6.584,13.193-18.63-5.259Z" transform="translate(-197.637 -425.989)" fill="#cdcdcd" stroke="#000" stroke-width="0"/>
    <path id="Path_203" data-name="Path 203" d="M227.1,376.37l23.192-8.307.087,21.547h-5.192L231.77,385.8Z" transform="translate(-274.447 -411.983)" fill="#cdcdcd" stroke="#000" stroke-width="0"/>
    <path id="Path_204" data-name="Path 204" d="M165.639,284.032l-12.98-26.74h24.317a22.873,22.873,0,0,1,11.855,14.538l1.038,4.071S165.812,284.032,165.639,284.032Z" transform="translate(-212.898 -322.846)" fill="#cdcdcd" stroke="#000" stroke-width="0"/>
    <path id="Path_205" data-name="Path 205" d="M392.256,124.918" transform="translate(-408.013 -216.325)" fill="#b1b1b1" stroke="#008200" stroke-width="0"/>
    <g id="Group_132" data-name="Group 132" transform="matrix(0.378, 0.926, -0.926, 0.378, 13.383, -106.428)">
      <g id="g-245" transform="translate(0 0)">
        <g id="g-246">
          <path id="Path_206" data-name="Path 206" d="M0,0H3.446V17.858H0Z" fill="#fff"/>
        </g>
      </g>
    </g>
    <path id="Path_207" data-name="Path 207" d="M1032.99,177.306l22.891,13.5,9.492-16.177,18.987-42.332-4.2-2.356L1072,140.851S1057.5,159,1032.99,177.306Z" transform="translate(-927.306 -220.364)" fill="#45a73c" stroke="#000" stroke-width="0"/>
    <path id="Path_208" data-name="Path 208" d="M1202.62,307.775l2.189-3.725,6.795-15.339h18.036v34.614Z" transform="translate(-1064.255 -348.129)" fill="#cdcdcd" stroke="#008200" stroke-width="0"/>
    <path id="Path_209" data-name="Path 209" d="M142.473-.546V3.811h7.814s6.58.449,9.856,5.457l2.017,4.622,7.386.06L171.329-.628Z" transform="translate(-204.701 -115.299)" fill="#cdcdcd" stroke="#000" stroke-width="0"/>
    <path id="Path_210" data-name="Path 210" d="M376.341,38.738" transform="translate(-395.133 -146.977)" fill="#b1b1b1" stroke="#000" stroke-width="0"/>
    <g id="Group_133" data-name="Group 133" transform="translate(-24.606 -98.015) rotate(-90)">
      <g id="g-41" transform="translate(0 0)">
        <g id="g-42">
          <path id="Path_211" data-name="Path 211" d="M0,0H3.381V15.979H0Z" fill="#fff"/>
        </g>
      </g>
    </g>
    <path id="Path_212" data-name="Path 212" d="M356.76,25.1,353.7,23.525s2.34-5.429,6.754-5.884h5.783v2.792h-4.909A6.517,6.517,0,0,0,356.76,25.1Z" transform="translate(-376.881 -129.999)" fill="#fff" stroke="#000" stroke-width="0"/>
    <path id="Path_213" data-name="Path 213" d="M376.241,31.843" transform="translate(-395.052 -141.428)" fill="#fff" stroke="#000" stroke-width="0"/>
    <path id="Path_214" data-name="Path 214" d="M372.416,40.083l-10.633-.066,1.844-4.45a6.835,6.835,0,0,1,4.2-3.743h4.527Z" transform="translate(-383.41 -141.413)" fill="#45a73c" stroke="#000" stroke-width="0"/>
    <path id="Path_215" data-name="Path 215" d="M300.111-.176l-1.888,14.449h8.733L309.062,9.2s2.148-5.208,6.673-5.892h5.472l-.065-3.483Z" transform="translate(-332.026 -115.662)" fill="#cdcdcd" stroke="#000" stroke-width="0"/>
    <g id="Group_134" data-name="Group 134" transform="matrix(0, 1, -1, 0, 82.01, -88.638)">
      <g id="g-51" transform="translate(0 0)">
        <g id="g-52">
          <path id="Path_216" data-name="Path 216" d="M0,0H3.446V22.716H0Z" fill="#fff"/>
        </g>
      </g>
    </g>
    <g id="Group_135" data-name="Group 135" transform="translate(67.625 -67.423) rotate(90)">
      <g id="g-53" transform="translate(0 0)">
        <g id="g-54">
          <path id="Path_217" data-name="Path 217" d="M0,0H3.435V9.138H0Z" fill="#fff"/>
        </g>
      </g>
    </g>
    <path id="Path_218" data-name="Path 218" d="M808.715,263.488" transform="translate(-745.046 -327.832)" fill="#45a73c" stroke="#000" stroke-width="0"/>
    <path id="Path_219" data-name="Path 219" d="M803.18,248.927l1.545,19.921,5.7,3.317,11.9-10.953a68.089,68.089,0,0,0,7.639-5.94c.731-.693-.27-5.284-.27-5.284a25.924,25.924,0,0,0-1.109-2.608,4.943,4.943,0,0,0-4.26-3.164l-2.29,1.331S812.2,250,803.18,248.927Z" transform="translate(-740.026 -313.124)" fill="#45a73c" stroke="#000" stroke-width="0"/>
    <path id="Path_220" data-name="Path 220" d="M628.3,376.662H612.485s-2.316,7.148-9.4,4.1l-6.615,6.569,7.078,12.228,24.6.047L630,397.027Z" transform="translate(-573.573 -418.902)" fill="#cdcdcd" stroke="#008200" stroke-width="0"/>
    <path id="Path_221" data-name="Path 221" d="M799.237,123.37l1.4,17.853s29.1,3.244,30.049-25.9l-11.171.047v8.08Z" transform="translate(-737.725 -208.604)" fill="#cdcdcd" stroke="#000" stroke-width="0"/>
    <path id="Path_222" data-name="Path 222" d="M668.785,716.076l-2.206-27.328s-3.247,6.924-12.561,15.5-15.931,12.01-15.931,12.01Z" transform="translate(-607.24 -670.037)" fill="#45a73c" stroke="#000" stroke-width="0"/>
    <g id="Group_136" data-name="Group 136" transform="matrix(-0.966, 0.259, -0.259, -0.966, 43.87, -103.079)">
      <g id="g-119" transform="translate(0 0)">
        <g id="g-120">
          <path id="Path_223" data-name="Path 223" d="M0,0H3.446V15.439H0Z" fill="#fff"/>
        </g>
      </g>
    </g>
    <path id="Path_224" data-name="Path 224" d="M695.967-1.476l-2.134-7.976,1.573-8.313,4.83.786L698.27-1.308Z" transform="translate(-652.133 -101.509)" fill="#cdcdcd" stroke="#008200" stroke-width="0"/>
    <g id="Group_137" data-name="Group 137" transform="translate(-62.704 -108.152) rotate(-90)">
      <g id="g-133" transform="translate(0 0)">
        <g id="g-134">
          <path id="Path_225" data-name="Path 225" d="M0,0H3.348V7.208H0Z" fill="#fff"/>
        </g>
      </g>
    </g>
    <path id="Path_226" data-name="Path 226" d="M1044.19,55.317h19.685l8.758,4.837-10.343,13.261Z" transform="translate(-936.01 -160.317)" fill="#cdcdcd" stroke="#008200" stroke-width="0"/>
    <path id="Path_227" data-name="Path 227" d="M1034.8,70.691l17.765,17.682s-11.759,12.344-17.765,15.6Z" transform="translate(-928.252 -172.689)" fill="#cdcdcd" stroke="#008200" stroke-width="0"/>
    <path id="Path_228" data-name="Path 228" transform="translate(-90.054 -115.804)" fill="#45a73c" stroke="#000" stroke-width="0"/>
  </g>
</svg>
