<?xml version="1.0" standalone="no"?>
<!DOCTYPE svg PUBLIC "-//W3C//DTD SVG 20010904//EN"
 "http://www.w3.org/TR/2001/REC-SVG-20010904/DTD/svg10.dtd">
<svg version="1.0" xmlns="http://www.w3.org/2000/svg"
 width="1120.000000pt" height="1120.000000pt" viewBox="0 0 1120.000000 1120.000000"
 preserveAspectRatio="xMidYMid meet">
<metadata>
Created by potrace 1.14, written by Peter Selinger 2001-2017
</metadata>
<g transform="translate(0.000000,1120.000000) scale(0.100000,-0.100000)"
fill="#000000" stroke="none">
<path d="M6335 11138 c-50 -33 -104 -72 -121 -87 -123 -104 -157 -136 -232
-211 -204 -205 -353 -404 -467 -625 -88 -170 -153 -361 -170 -495 -2 -19 -7
-48 -11 -65 -11 -52 -5 -468 7 -553 4 -23 -8 -31 -73 -56 -40 -16 -86 -34
-103 -41 -16 -7 -59 -24 -95 -38 -152 -58 -458 -209 -648 -322 -74 -44 -234
-146 -242 -155 -3 -3 -25 -19 -50 -35 -24 -17 -51 -35 -60 -42 -8 -7 -55 -44
-105 -83 -140 -110 -304 -264 -425 -400 l-32 -35 6 185 c3 102 8 214 10 250 7
118 18 252 21 271 2 10 6 49 10 86 3 37 8 79 10 93 6 31 11 70 20 135 4 28 9
59 11 70 1 11 6 40 10 65 3 25 13 77 20 115 8 39 16 79 18 90 2 11 6 34 9 50
4 17 9 44 12 60 3 17 21 93 40 170 19 77 37 149 40 160 18 87 119 416 151 493
19 44 1 40 -22 -5 -10 -21 -22 -40 -25 -43 -12 -10 -117 -238 -163 -355 -26
-66 -51 -129 -56 -140 -5 -11 -23 -65 -40 -120 -17 -55 -37 -120 -45 -145 -7
-25 -16 -57 -19 -72 -2 -15 -7 -31 -9 -35 -6 -10 -78 -318 -82 -353 -3 -24
-10 -61 -19 -105 -2 -11 -7 -42 -10 -70 -4 -27 -9 -57 -11 -65 -2 -8 -6 -40
-10 -70 -3 -30 -7 -68 -10 -85 -2 -16 -7 -61 -10 -100 -3 -38 -7 -86 -9 -105
-8 -77 -19 -344 -20 -490 -1 -136 -3 -159 -21 -185 -11 -16 -22 -32 -25 -35
-4 -3 -27 -41 -53 -85 -26 -44 -52 -87 -57 -95 -54 -84 -158 -328 -190 -443
-28 -100 -25 -109 11 -41 43 80 195 316 242 374 7 9 32 42 55 73 24 32 45 57
47 55 1 -2 6 -48 10 -103 11 -163 13 -187 19 -229 3 -23 8 -67 11 -99 4 -32 8
-66 10 -75 1 -9 6 -42 9 -72 4 -30 11 -77 16 -105 5 -27 12 -66 14 -85 3 -19
8 -46 11 -60 2 -14 7 -41 9 -60 3 -19 12 -65 20 -101 8 -36 17 -79 19 -95 3
-16 10 -51 17 -79 6 -27 14 -59 16 -70 8 -39 13 -60 23 -93 5 -18 10 -36 11
-40 0 -4 3 -16 5 -27 3 -11 7 -29 9 -40 1 -11 6 -27 9 -35 9 -21 29 -98 41
-150 6 -32 97 -316 126 -395 33 -91 61 -168 70 -190 4 -11 14 -36 21 -55 7
-19 31 -80 54 -135 47 -113 57 -138 55 -144 -1 -2 2 -7 7 -10 5 -3 19 -31 32
-61 33 -78 199 -409 254 -507 26 -45 47 -87 47 -93 0 -5 5 -10 10 -10 6 0 10
-5 10 -10 0 -13 161 -273 247 -400 36 -52 65 -101 65 -110 0 -17 -11 -64 -24
-100 -3 -8 -22 -65 -41 -127 -20 -61 -55 -160 -78 -220 -50 -129 -67 -171
-138 -326 -17 -37 -31 -69 -32 -72 -7 -34 -291 -565 -408 -763 -34 -57 -61
-108 -61 -113 0 -5 -3 -9 -8 -9 -4 0 -18 -21 -32 -47 -14 -27 -29 -52 -33 -58
-5 -5 -41 -62 -80 -126 -130 -210 -342 -529 -352 -529 -20 0 -365 359 -480
500 -20 25 -44 54 -53 65 -52 63 -190 260 -250 357 -75 120 -182 327 -182 350
0 8 -4 18 -9 24 -5 5 -18 36 -30 69 -12 33 -26 69 -31 80 -31 64 -183 557
-204 660 -3 11 -13 58 -24 105 -22 92 -58 267 -66 315 -3 17 -8 46 -11 65 -4
19 -8 49 -10 65 -2 17 -6 46 -9 65 -8 45 -15 101 -21 170 -3 30 -8 69 -10 85
-6 42 -17 198 -20 275 -4 97 -5 98 -20 63 -14 -32 -26 -92 -29 -143 -1 -14 -5
-30 -8 -36 -7 -10 -2 -517 5 -589 6 -56 17 -162 22 -210 7 -60 17 -138 21
-160 2 -11 6 -36 9 -55 3 -19 7 -46 10 -60 4 -14 8 -38 11 -55 24 -146 152
-547 228 -720 36 -81 157 -322 191 -380 20 -33 38 -68 41 -77 4 -10 10 -18 14
-18 4 0 10 -8 13 -17 5 -17 32 -64 50 -88 4 -5 35 -50 68 -100 163 -240 309
-415 542 -648 l128 -129 -51 -70 -51 -70 45 32 c25 18 54 41 65 51 27 25 32
24 72 -12 19 -18 79 -68 134 -112 55 -44 102 -84 103 -88 2 -5 10 -9 18 -9 8
0 14 -4 14 -10 0 -5 6 -10 14 -10 8 0 16 -4 18 -8 1 -4 26 -23 53 -42 28 -19
52 -38 55 -41 3 -3 39 -27 80 -54 41 -26 86 -55 100 -64 33 -21 53 -33 87 -52
15 -9 46 -26 68 -39 46 -26 292 -150 345 -173 87 -39 261 -105 330 -126 41
-13 82 -25 90 -29 8 -3 20 -6 25 -7 6 -2 30 -8 55 -16 25 -7 52 -14 59 -15 8
-2 44 -10 80 -18 70 -17 108 -24 156 -31 17 -2 46 -7 66 -10 20 -4 58 -9 85
-12 74 -9 402 -9 459 0 28 4 64 9 80 11 17 2 62 11 100 20 39 9 81 19 95 22
38 8 231 73 267 89 17 8 34 15 37 15 5 0 147 64 178 80 9 5 51 28 94 50 80 43
205 119 214 131 3 3 16 12 30 19 55 29 319 233 393 303 255 243 425 430 562
622 11 15 29 39 41 54 79 100 334 515 334 542 0 5 5 9 10 9 6 0 9 3 8 8 -1 4
30 71 70 150 63 127 170 361 176 387 2 6 9 24 16 40 18 44 91 238 96 255 2 8
22 69 45 135 22 66 42 127 44 135 2 8 17 65 35 125 30 107 35 125 44 163 2 9
14 55 25 102 12 47 23 94 25 105 3 11 11 52 20 90 17 81 19 91 40 200 15 76
19 103 31 178 3 17 7 43 10 57 6 32 17 106 30 205 3 23 7 50 9 60 2 11 7 52
10 90 4 39 9 81 11 95 6 34 14 111 21 190 3 36 7 81 9 100 2 19 6 76 10 125 3
50 8 110 10 135 6 69 16 299 20 455 2 95 8 156 19 187 8 26 18 57 21 70 2 13
16 66 30 118 15 52 29 109 32 125 3 17 9 38 14 48 5 9 8 17 6 17 -3 0 2 26 10
58 16 66 18 74 28 127 5 22 9 42 10 45 0 3 5 28 10 55 4 28 9 55 11 60 1 6 5
28 8 50 4 23 8 50 10 60 6 35 16 99 20 130 2 17 7 48 10 70 8 58 13 101 21
180 4 39 8 81 11 95 26 152 25 889 -1 1110 -2 19 -7 62 -10 95 -3 33 -8 71
-10 85 -2 14 -7 50 -10 80 -4 30 -9 58 -11 61 -1 3 -6 25 -9 50 -10 75 -11 78
-17 85 -4 3 -5 -7 -3 -23 22 -175 27 -275 28 -533 1 -254 -12 -492 -37 -685
-2 -16 -7 -59 -11 -95 -4 -36 -9 -72 -10 -81 -2 -9 -6 -40 -10 -70 -3 -30 -8
-61 -10 -69 -2 -8 -7 -35 -10 -60 -4 -25 -11 -65 -16 -90 -6 -25 -12 -58 -14
-75 -2 -16 -6 -41 -10 -55 -3 -14 -8 -38 -11 -55 -3 -16 -10 -50 -15 -75 -6
-25 -12 -54 -15 -65 -20 -103 -58 -254 -63 -249 -3 3 -6 22 -7 42 -2 63 -14
244 -19 292 -3 25 -7 70 -10 100 -4 50 -11 122 -20 205 -11 104 -16 154 -21
185 -4 19 -8 51 -9 70 -2 19 -4 35 -5 35 -1 0 -3 9 -4 20 -3 19 -15 107 -22
150 -2 11 -6 38 -9 59 -6 44 -12 79 -20 116 -3 14 -7 39 -10 55 -9 77 -114
561 -135 630 -5 17 -11 41 -14 55 -28 154 -230 781 -321 995 -7 17 -34 80 -59
140 -26 61 -64 146 -85 190 l-39 80 59 30 59 31 -25 34 c-96 131 -352 318
-629 461 -77 40 -97 47 -92 33 4 -11 25 -66 47 -124 22 -58 43 -114 48 -125 4
-11 14 -38 20 -60 7 -22 16 -49 21 -60 14 -35 48 -137 79 -240 61 -206 70
-239 65 -247 -3 -4 0 -8 5 -8 6 0 10 -3 9 -7 -1 -5 4 -34 11 -66 10 -46 15
-56 26 -47 10 8 80 141 90 170 16 49 27 46 54 -13 10 -23 51 -111 89 -195 39
-84 71 -155 72 -157 0 -3 10 -26 21 -52 12 -27 39 -93 61 -148 22 -55 45 -111
51 -125 5 -14 11 -29 13 -35 2 -5 17 -48 34 -95 39 -106 110 -310 115 -330 2
-8 18 -60 35 -115 27 -86 50 -166 65 -225 3 -8 14 -51 26 -95 11 -44 23 -89
25 -99 2 -10 8 -33 13 -50 6 -17 12 -44 15 -61 3 -16 10 -50 16 -75 13 -50 14
-57 26 -120 4 -25 8 -47 9 -50 19 -78 44 -215 60 -330 4 -30 9 -64 11 -75 6
-32 12 -66 20 -125 4 -30 8 -62 10 -70 1 -8 5 -44 8 -80 4 -36 8 -78 10 -95
25 -214 37 -424 39 -650 l2 -180 -74 -215 c-40 -118 -78 -223 -83 -233 -5 -10
-11 -27 -13 -37 -2 -11 -10 -34 -18 -52 -16 -35 -101 -250 -103 -258 -3 -16
-108 -259 -191 -440 -41 -90 -174 -352 -199 -392 -13 -21 -24 -39 -24 -42 0
-4 -92 -156 -120 -196 -46 -69 -166 -237 -180 -254 -10 -12 -53 -64 -96 -116
-80 -96 -256 -278 -350 -360 -155 -136 -374 -291 -524 -371 -36 -18 -67 -37
-70 -40 -19 -20 -407 -181 -471 -194 -9 -2 -47 -13 -85 -24 -120 -35 -309 -70
-406 -75 -47 -2 -31 -12 35 -22 67 -10 288 -10 377 0 256 28 595 152 828 302
143 92 175 115 272 193 121 96 129 103 258 232 110 109 156 158 227 244 28 33
53 62 56 65 3 3 39 50 80 105 113 150 235 332 339 505 89 147 300 552 350 670
12 30 33 78 46 105 13 28 46 106 73 175 27 68 54 126 61 128 8 3 10 0 5 -8 -4
-7 -9 -40 -10 -74 -3 -81 -15 -253 -20 -291 -6 -43 -14 -130 -20 -206 -3 -37
-7 -76 -10 -87 -5 -28 -19 -152 -19 -179 -1 -13 -3 -23 -6 -23 -3 0 -5 -10 -6
-22 0 -29 -14 -138 -19 -158 -2 -8 -7 -37 -11 -65 -8 -58 -8 -64 -19 -130 -9
-57 -7 -47 -34 -179 -12 -54 -23 -109 -25 -122 -3 -13 -7 -32 -10 -42 -3 -9
-7 -28 -10 -42 -3 -14 -9 -40 -15 -58 -5 -18 -10 -36 -11 -40 -2 -20 -67 -255
-77 -282 -3 -8 -7 -19 -8 -25 -5 -20 -88 -261 -100 -290 -7 -16 -25 -61 -40
-100 -143 -358 -302 -660 -523 -995 -64 -96 -118 -177 -122 -180 -3 -3 -37
-45 -75 -95 -38 -49 -74 -95 -80 -102 -5 -7 -15 -18 -20 -25 -49 -60 -163
-188 -229 -257 -70 -72 -114 -115 -232 -227 -32 -30 -247 -206 -274 -224 -12
-8 -28 -20 -35 -27 -26 -25 -269 -183 -282 -183 -7 0 -13 -4 -13 -9 0 -8 -337
-181 -353 -181 -3 0 -18 -5 -34 -11 -15 -6 -29 -10 -30 -10 -2 0 -22 -8 -45
-18 -36 -15 -162 -52 -229 -67 -10 -2 -29 -6 -41 -9 -127 -28 -470 -28 -628 0
-14 3 -43 7 -65 11 -22 3 -48 7 -57 10 -9 3 -27 7 -40 9 -13 3 -34 7 -48 10
-14 3 -34 7 -46 9 -69 13 -319 95 -404 133 -30 13 -57 24 -60 25 -26 3 -248
112 -370 181 -97 55 -314 193 -343 217 -6 6 -50 39 -97 73 -47 34 -90 66 -96
72 -6 5 -47 39 -90 74 l-79 65 120 120 c110 111 188 196 261 286 16 19 32 36
37 38 4 2 7 10 7 17 0 7 4 15 9 17 15 5 143 185 221 310 78 124 205 376 215
427 2 9 13 41 25 71 12 30 23 60 25 65 1 6 4 17 7 25 33 89 108 336 127 415 5
22 19 78 31 125 12 47 24 96 26 110 3 14 10 45 15 70 16 70 19 83 25 120 3 19
8 38 10 41 2 3 6 21 9 40 15 87 47 254 50 257 1 2 20 -21 41 -50 125 -173 350
-445 429 -519 19 -19 35 -36 35 -40 0 -4 -38 -6 -85 -6 -50 1 -84 -2 -82 -7 2
-6 26 -25 53 -43 27 -19 56 -39 65 -46 31 -24 54 -38 82 -50 15 -6 27 -15 27
-19 0 -4 6 -8 13 -8 7 0 29 -11 49 -25 20 -14 44 -25 52 -25 8 0 16 -4 18 -9
3 -7 107 -59 165 -82 26 -10 25 -4 -12 76 -66 143 -229 548 -239 595 -3 14
-12 34 -19 45 -14 18 -15 18 -14 -10 0 -38 -13 -188 -17 -192 -5 -6 -58 47
-130 132 -37 44 -79 92 -92 107 -13 14 -24 31 -24 36 0 6 -3 12 -8 14 -37 16
-335 461 -457 683 -21 39 -47 86 -58 105 -81 143 -224 444 -309 650 -33 80
-64 154 -69 165 -13 30 -32 79 -35 90 -1 6 -12 37 -25 70 -13 33 -24 62 -24
65 -1 3 -5 13 -8 23 -4 9 -10 25 -14 35 -3 9 -7 19 -8 22 0 3 -22 68 -47 145
-48 146 -100 312 -104 331 -1 6 -10 38 -19 70 -10 33 -19 66 -21 74 -1 8 -16
67 -32 130 -29 109 -59 245 -67 300 -2 14 -4 25 -5 25 -1 0 -3 9 -5 20 -2 11
-7 36 -11 55 -4 19 -8 44 -9 55 -1 11 -5 38 -10 60 -4 22 -9 54 -11 70 -2 17
-6 46 -10 65 -3 19 -7 51 -10 70 -2 19 -6 51 -9 70 -8 59 -20 173 -30 290 -5
54 -14 182 -19 290 l-4 55 147 145 c80 80 160 157 177 171 53 45 200 163 229
184 16 11 33 25 39 30 6 6 45 33 86 60 41 28 77 52 80 55 8 9 190 120 195 120
3 0 24 12 47 26 22 14 86 48 142 76 56 27 108 53 116 58 28 18 82 40 96 40 8
0 14 5 14 10 0 6 5 10 12 10 16 0 220 93 346 157 57 29 107 53 112 53 4 0 8
-19 8 -42 0 -24 3 -99 7 -168 3 -69 8 -165 10 -215 2 -49 6 -144 9 -210 3 -66
8 -178 11 -250 3 -71 8 -184 10 -250 35 -829 38 -1553 10 -1965 -13 -188 -17
-239 -20 -280 -2 -25 -7 -83 -10 -130 -4 -47 -8 -96 -10 -110 -2 -14 -6 -61
-10 -105 -5 -76 -9 -115 -20 -230 -3 -27 -8 -79 -12 -114 l-6 -64 34 7 c68 12
81 15 97 20 9 3 33 8 52 11 19 3 63 12 98 20 34 8 77 17 95 20 17 3 48 10 67
15 19 6 40 10 47 10 9 0 12 -84 12 -356 0 -196 1 -358 3 -360 2 -2 28 4 58 12
30 8 120 31 200 50 80 20 152 38 160 41 8 4 22 7 30 9 8 2 87 22 175 44 88 23
168 43 178 45 10 2 27 7 37 10 10 3 28 8 40 10 12 2 31 7 42 11 16 5 19 3 12
-7 -28 -47 -292 -309 -311 -309 -3 0 -13 -8 -22 -18 -9 -10 -32 -29 -51 -42
-19 -13 -37 -27 -40 -30 -14 -15 -160 -110 -169 -110 -6 0 -11 -3 -11 -7 0 -5
-10 -13 -23 -19 -66 -33 -197 -106 -197 -111 0 -3 12 -2 28 2 15 4 38 9 52 10
14 2 36 6 50 10 14 3 36 8 49 11 13 3 31 9 40 13 9 5 21 10 26 11 77 18 268
108 369 175 38 25 73 45 77 45 5 0 9 3 9 8 0 4 28 28 61 52 68 50 242 218 304
294 22 27 52 63 66 80 22 26 151 215 172 252 4 6 -109 -26 -251 -72 -141 -45
-293 -94 -337 -107 -164 -50 -226 -69 -238 -71 -7 -1 -18 -5 -24 -9 -7 -5 -17
-6 -22 -2 -5 3 -12 1 -15 -4 -5 -8 -81 -27 -81 -20 0 1 -10 -3 -23 -10 -13 -7
-31 -14 -40 -16 -9 -1 -37 -9 -62 -16 -25 -7 -47 -13 -50 -13 -3 -1 -11 -5
-17 -9 -7 -5 -13 -6 -13 -4 0 3 -27 -3 -60 -13 -33 -10 -62 -15 -64 -11 -5 7
-2 68 9 246 3 44 7 118 9 165 5 105 16 297 21 368 3 38 1 52 -9 52 -7 0 -16
-3 -20 -7 -3 -4 -16 -8 -28 -10 -12 -2 -57 -14 -100 -27 -43 -14 -78 -22 -78
-19 0 3 -6 1 -12 -5 -11 -8 -67 -24 -83 -23 -2 0 -24 -7 -47 -15 -24 -9 -55
-18 -69 -20 -29 -5 -28 -10 -15 111 3 28 8 79 11 115 2 36 7 94 10 130 7 75
11 136 20 305 3 66 9 161 12 210 3 50 6 337 7 639 l2 549 94 48 c83 42 207
100 345 159 46 20 183 70 205 75 8 2 42 13 75 25 33 12 67 23 75 25 8 1 35 9
60 16 25 7 47 13 50 14 116 28 200 48 220 51 14 3 41 9 60 14 19 5 52 11 72
14 21 3 57 10 80 15 47 10 117 20 188 27 25 2 63 6 85 9 96 12 368 17 361 7
-13 -21 -209 -144 -327 -205 -176 -91 -485 -206 -505 -188 -4 3 -4 0 0 -7 4
-7 10 -11 14 -8 4 2 43 7 87 10 44 4 91 8 105 10 14 2 50 7 80 11 30 4 64 9
75 11 11 2 34 6 50 8 17 2 41 7 55 10 14 3 36 8 50 10 14 2 45 9 70 16 25 7
52 13 60 15 8 2 47 15 85 30 39 14 75 27 80 29 55 14 159 89 238 171 78 81
199 277 179 289 -8 5 -81 12 -212 22 -70 5 -369 5 -435 -1 -91 -7 -190 -17
-210 -21 -11 -3 -38 -7 -60 -9 -88 -11 -322 -63 -350 -77 -11 -6 -22 -11 -25
-10 -16 5 -170 -45 -291 -94 -255 -103 -458 -220 -686 -396 -57 -43 -104 -73
-104 -66 -2 20 -6 90 -13 228 -9 175 -14 254 -22 335 -8 101 -13 152 -19 225
-6 78 -14 164 -19 205 -2 17 -7 59 -10 95 -11 104 -16 143 -21 170 -2 14 -7
54 -11 90 -3 36 -8 79 -10 95 -5 33 -12 146 -18 272 -5 88 -2 95 56 124 100
52 391 235 467 295 193 153 307 278 370 408 51 107 98 274 117 421 3 22 7 51
10 65 25 142 25 766 -1 900 -3 13 -7 55 -10 94 -3 38 -8 73 -13 78 -4 4 -48
-20 -97 -54z m36 -170 c0 -13 3 -43 7 -68 13 -90 4 -433 -13 -459 -2 -4 -5
-27 -6 -50 -2 -23 -7 -45 -11 -47 -5 -3 -6 -10 -3 -15 4 -5 3 -15 -1 -21 -5
-7 -9 -19 -10 -28 -13 -112 -124 -400 -211 -545 -49 -81 -127 -189 -172 -238
-51 -55 -157 -156 -196 -188 -72 -57 -287 -189 -309 -189 -6 0 0 175 8 216 2
10 7 44 11 74 4 30 9 64 11 75 3 11 7 38 10 60 7 45 68 282 92 360 120 377
378 772 654 999 108 88 138 102 139 64z"/>
<path d="M2624 6369 c-46 -23 -115 -184 -128 -304 -2 -16 -7 -56 -11 -88 -24
-199 -20 -587 10 -907 14 -149 18 -187 21 -205 3 -11 7 -46 9 -79 2 -32 6 -70
9 -85 3 -14 8 -44 11 -66 3 -23 8 -52 10 -65 13 -61 27 -127 31 -150 22 -112
113 -419 151 -510 3 -8 7 -19 9 -25 17 -68 246 -545 261 -545 7 0 2 17 -56
169 -58 150 -116 339 -161 523 -33 129 -94 422 -105 498 -3 25 -11 64 -16 87
-5 24 -8 46 -7 50 1 5 -2 24 -6 43 -7 33 -9 51 -20 145 -3 22 -7 54 -10 70 -3
17 -8 57 -11 90 -3 33 -8 80 -11 105 -3 25 -7 68 -10 95 -2 28 -6 77 -8 110
-18 212 -27 616 -16 720 6 49 25 108 37 112 17 6 50 -41 72 -101 23 -63 79
-271 86 -320 2 -15 7 -36 10 -46 3 -10 8 -33 11 -51 2 -19 7 -47 10 -64 3 -16
7 -39 9 -50 24 -141 38 -209 51 -255 8 -30 16 -59 18 -65 1 -5 8 -30 15 -55
84 -305 342 -862 624 -1350 50 -85 99 -172 111 -192 12 -21 24 -38 27 -38 4 0
-2 30 -11 68 -10 37 -21 84 -24 106 -4 21 -8 42 -11 46 -2 3 -7 22 -10 41 -3
19 -10 54 -15 79 -6 25 -12 59 -15 75 -8 53 -17 109 -25 155 -5 24 -6 48 -4
52 3 5 2 8 -3 8 -4 0 -9 15 -9 33 -1 17 -5 59 -10 92 -4 33 -8 79 -8 102 -1
24 -3 43 -6 43 -4 0 -6 10 -7 23 0 12 -4 72 -9 132 -10 136 -11 747 -1 870 8
95 16 175 22 213 9 56 -40 0 -81 -95 -46 -104 -58 -142 -69 -218 -3 -23 -8
-52 -10 -65 -32 -155 -20 -757 18 -945 3 -11 8 -51 12 -88 4 -37 11 -82 15
-98 6 -21 6 -29 -2 -27 -6 2 -34 64 -63 138 -61 155 -67 171 -71 185 -1 6 -14
42 -29 80 -29 74 -139 412 -174 530 -35 121 -63 217 -66 234 -2 9 -18 75 -35
146 -17 72 -33 141 -35 155 -2 14 -11 57 -20 95 -8 39 -22 104 -31 145 -8 41
-17 80 -18 85 -2 6 -7 28 -11 50 -5 22 -10 42 -10 45 -33 142 -94 279 -135
303 -32 19 -37 20 -66 6z"/>
<path d="M2221 5518 c-38 -81 -62 -162 -78 -263 -16 -99 -9 -471 11 -630 2
-16 7 -52 11 -80 7 -55 11 -84 25 -165 5 -30 12 -73 15 -95 3 -22 8 -46 11
-54 2 -8 7 -30 10 -50 3 -20 10 -54 16 -76 5 -22 12 -51 15 -65 4 -25 41 -167
69 -270 35 -124 77 -256 87 -267 5 -7 7 -13 3 -13 -9 0 124 -354 182 -480 50
-112 161 -340 165 -340 3 0 -7 33 -22 73 -15 39 -28 75 -28 80 -1 7 -12 41
-74 234 -11 35 -22 71 -24 80 -3 10 -29 97 -58 193 -29 96 -54 180 -55 185 -2
6 -10 33 -18 61 -8 28 -17 60 -19 70 -2 11 -18 69 -35 129 -18 61 -33 117 -35
125 -2 8 -15 61 -30 118 -14 56 -29 115 -32 130 -6 34 -9 43 -15 62 -20 54
-64 327 -73 455 -3 33 -8 80 -11 105 -13 105 -7 467 12 625 2 22 6 58 8 80 3
22 8 59 11 83 4 23 5 42 1 42 -3 0 -23 -37 -45 -82z"/>
</g>
</svg>
